<?xml version="1.0" encoding="UTF-8" standalone="no"?>
<!-- Created with Inkscape (http://www.inkscape.org/) -->

<svg
   width="256"
   height="256"
   viewBox="0 0 67.733332 67.733334"
   version="1.1"
   id="svg1"
   inkscape:version="1.4.2 (ebf0e940d0, 2025-05-08)"
   sodipodi:docname="favicon.svg"
   xmlns:inkscape="http://www.inkscape.org/namespaces/inkscape"
   xmlns:sodipodi="http://sodipodi.sourceforge.net/DTD/sodipodi-0.dtd"
   xmlns:xlink="http://www.w3.org/1999/xlink"
   xmlns="http://www.w3.org/2000/svg"
   xmlns:svg="http://www.w3.org/2000/svg">
  <sodipodi:namedview
     id="namedview1"
     pagecolor="#505050"
     bordercolor="#eeeeee"
     borderopacity="1"
     inkscape:showpageshadow="0"
     inkscape:pageopacity="0"
     inkscape:pagecheckerboard="0"
     inkscape:deskcolor="#505050"
     inkscape:document-units="mm"
     inkscape:zoom="1.4142136"
     inkscape:cx="-0.70710678"
     inkscape:cy="43.84062"
     inkscape:window-width="2560"
     inkscape:window-height="1413"
     inkscape:window-x="0"
     inkscape:window-y="0"
     inkscape:window-maximized="1"
     inkscape:current-layer="layer1" />
  <defs
     id="defs1">
    <linearGradient
       id="linearGradient1"
       inkscape:collect="always">
      <stop
         style="stop-color:#09140d;stop-opacity:1;"
         offset="0"
         id="stop1" />
      <stop
         style="stop-color:#25352c;stop-opacity:1;"
         offset="1"
         id="stop2" />
    </linearGradient>
    <linearGradient
       inkscape:collect="always"
       xlink:href="#linearGradient1"
       id="linearGradient2"
       x1="10.323977"
       y1="58.211948"
       x2="56.790886"
       y2="8.9381437"
       gradientUnits="userSpaceOnUse" />
    <filter
       style="color-interpolation-filters:sRGB;"
       inkscape:label="Blur"
       id="filter31"
       x="-0.1608048"
       y="-0.12297403"
       width="1.3216096"
       height="1.2459481">
      <feGaussianBlur
         stdDeviation="3.83216 2.84363"
         result="blur"
         id="feGaussianBlur31" />
    </filter>
  </defs>
  <g
     inkscape:label="Layer 1"
     inkscape:groupmode="layer"
     id="layer1">
    <circle
       style="fill:url(#linearGradient2);stroke:none;stroke-width:1.08479;stroke-linecap:round;fill-opacity:1"
       id="path1"
       cx="33.866665"
       cy="33.866665"
       r="33.866665" />
    <path
       style="fill:#ffffff;fill-opacity:0.53885335;stroke:none;stroke-width:0.936525;stroke-linecap:round;stroke-dasharray:none"
       id="path25"
       d="m 33.655595,22.288732 c -0.104392,0.06486 -0.20536,0.135586 -0.313174,0.194584 -0.193109,0.105676 -0.394727,0.19517 -0.588825,0.299017 -0.382058,0.204409 -0.753925,0.42784 -1.139443,0.625646 -0.541103,0.277633 -1.09155,0.536702 -1.639643,0.800269 -1.246168,0.599258 -2.894765,1.369995 -4.134445,1.952343 -3.23044,1.53787 -6.436521,3.144616 -9.496511,5.0029 -0.23026,0.169164 -0.712806,0.396875 -0.726189,0.782647 -0.0052,0.148566 0.03817,0.335203 0.163698,0.414833 1.138673,0.722329 2.330086,1.364991 3.549485,1.940666 0.216914,0.102404 0.477064,0.05078 0.715903,0.07301 0.327851,0.03052 0.65608,0.05683 0.984121,0.08524 1.960052,0.262966 3.889262,0.763731 5.684283,1.604595 0.464951,0.217803 1.769551,1.030669 1.363668,0.716221 -0.431977,-0.334664 -0.962064,-0.518501 -1.443095,-0.777755 0.955106,0.702461 2.133349,1.525451 2.500319,2.729394 0.05874,0.192723 0.130262,0.405344 0.07663,0.599551 -0.06368,0.230592 -0.270457,0.394668 -0.405685,0.592004 -0.313418,0.217156 -0.604918,0.469978 -0.940251,0.651468 -1.110649,0.601105 -2.294969,0.940678 -3.520675,1.230376 -1.590802,0.375989 -3.380705,0.637365 -5.000937,0.829942 -0.7854,0.09335 -1.574273,0.154699 -2.36141,0.232051 -1.59839,0.130833 -3.201817,0.214833 -4.805958,0.190823 -0.582627,-0.0087 -1.143364,-0.03803 -1.713879,-0.148615 l 2.899656,2.145135 v 0 c 1.938986,-0.09216 3.857744,-0.439027 5.784317,-0.6523 2.471712,-0.323097 4.946995,-0.636436 7.401968,-1.073439 1.598245,-0.284499 2.547658,-0.403553 3.978453,-1.038742 0.406352,-0.180394 0.772581,-0.440197 1.15887,-0.660299 0.20131,-0.258235 0.494961,-0.46594 0.603932,-0.774707 0.08007,-0.226896 -0.012,-0.48609 -0.07723,-0.717692 C 32.139407,39.874674 32.01704,39.624715 31.877825,39.389337 31.309221,38.427983 30.412467,37.759232 29.52188,37.120471 28.147823,36.31393 26.05014,34.965637 24.361722,34.211476 23.86918,33.991472 23.368565,33.787949 22.859315,33.610005 21.418218,33.106458 19.913713,32.809527 18.420569,32.512423 18.05773,32.452495 17.69321,32.40198 17.33205,32.332645 17.079118,32.284083 16.378167,31.9979 16.579182,32.158916 c 2.0427,1.277566 1.554267,1.682881 2.552303,0.777923 0.232696,-0.19432 0.458846,-0.396758 0.698087,-0.582961 2.499218,-1.945145 5.32896,-3.41952 8.192735,-4.744901 1.763323,-0.762932 2.561851,-1.130955 4.333512,-1.811928 1.520388,-0.584392 1.800243,-0.657797 3.235863,-1.114084 0.751352,-0.238804 0.53126,-0.171157 1.115628,-0.343858 z"
       sodipodi:nodetypes="cssssccscsscsscsscsssccccscsscssscsscsscscsscc" />
    <path
       style="fill:#ffffff;fill-opacity:0.53885335;stroke:none;stroke-width:0.936525;stroke-linecap:round;stroke-dasharray:none"
       id="path26"
       d="m 37.747272,23.601829 c 0.14389,1.530744 0.265288,3.061518 0.169602,4.600886 -0.04628,0.744455 -0.141885,1.485021 -0.212828,2.227531 -0.503088,3.728329 -1.392519,7.386352 -2.216412,11.052228 -0.07494,0.500568 -0.236168,1.003301 -0.249333,1.514245 -0.0018,0.07181 -0.04684,0.181039 0.01653,0.214882 3.450817,1.842896 2.594615,2.545939 3.760495,1.294545 0.372808,-0.439602 0.536959,-0.62723 0.916739,-1.104915 0.240321,-0.302276 0.470258,-0.612761 0.712649,-0.913386 0.815231,-1.01109 1.669535,-1.984247 2.54656,-2.941562 0.606685,-0.616036 0.789396,-0.822829 1.405068,-1.374639 0.171032,-0.153289 0.339359,-0.311051 0.525253,-0.445934 0.449458,-0.382447 -0.665214,-1.082463 -1.616433,-1.428679 -0.231694,-0.08433 0.301528,0.391077 0.433528,0.59933 0.223656,0.352852 0.434015,0.714389 0.632258,1.082116 0.634885,1.177665 1.156118,2.41318 1.694468,3.636398 0.355354,0.70635 0.578015,1.487808 1.006821,2.158345 0.05549,0.08677 0.105954,0.191832 0.198694,0.236633 1.139291,0.5504 2.242152,1.235068 3.471058,1.536247 0.220895,0.05414 0.202049,-0.407524 0.303075,-0.611287 0.09803,-0.321029 0.206412,-0.63908 0.294087,-0.963091 0.504833,-1.865647 0.887941,-3.766022 1.338956,-5.644477 0.654048,-2.724084 0.719356,-2.882621 1.45958,-5.602467 0.695678,-2.501559 1.460998,-4.985026 2.336633,-7.429834 0.189801,-0.529933 0.396955,-1.053491 0.59543,-1.580237 l -2.78839,-1.531856 v 0 c -0.829529,3.080158 -1.666484,6.158796 -2.584979,9.213908 -0.384419,1.369322 -1.159292,4.16266 -1.581317,5.535963 -0.242751,0.789932 -0.516749,1.569934 -0.769456,2.35674 -0.374114,1.164813 -0.570467,1.912689 -1.001866,3.019871 -0.112174,0.287892 -0.250289,0.56499 -0.375432,0.847485 -1.139969,0.868111 2.88335,3.015236 1.997654,1.556544 -0.215911,-0.355596 -0.709854,-1.390882 -0.86718,-1.712569 -0.568137,-1.211586 -1.117755,-2.43107 -1.674711,-3.647811 -0.159436,-0.348306 -0.311984,-0.699909 -0.480567,-1.043881 -0.10714,-0.218605 -0.151431,-0.497038 -0.346218,-0.643073 -1.08894,-0.816398 -2.294428,-1.464503 -3.441645,-2.196757 -0.140838,-0.02261 -0.280565,-0.08189 -0.422513,-0.06784 -0.295923,0.02931 -0.607408,0.295285 -0.804852,0.475925 -0.649285,0.594028 -1.181943,1.309771 -1.789373,1.94292 -1.421015,1.630101 -2.805214,3.302291 -4.387836,4.781175 -2.139423,0.57755 2.504806,1.848353 2.497382,1.749733 -0.01266,-0.168204 -0.01932,-0.337182 -0.01521,-0.505814 0.0063,-0.258941 0.03103,-0.517107 0.04654,-0.775661 0.418285,-3.77811 1.234147,-7.494923 1.889731,-11.235891 0.127036,-0.72155 0.274414,-1.439813 0.38111,-2.164651 0.214323,-1.456053 0.217748,-2.920326 0.298328,-4.385043 z"
       sodipodi:nodetypes="cscccccsscssssscscscsscsccscssscscssscssccscccscc" />
  </g>
</svg>
